<svg class="sumi" xmlns="http://www.w3.org/2000/svg" viewBox="0 0 64 64" role="img" aria-label="Kanlane"><rect width="64" height="64" rx="14" fill="#18181B"/><g transform="translate(7.68 7.30) scale(0.76)"><g fill="#FFFFFF"><path d="M12 37C7.5 34 6 29.5 6 26C6 15.5 18 8 32 8C46 8 58 15.5 58 26C58 29.5 56.5 34 52 37V40H42a2.5 2.5 0 0 0 -5 0H27a2.5 2.5 0 0 0 -5 0H12Z"/><g transform="rotate(7 17 40)"><rect class="sumi-arm sumi-arm-0" x="12" y="34" width="10" height="13" rx="5"/></g><rect class="sumi-arm sumi-arm-1" x="27" y="34" width="10" height="23" rx="5"/><g transform="rotate(-7 47 40)"><rect class="sumi-arm sumi-arm-2" x="42" y="34" width="10" height="18" rx="5"/></g></g><g class="sumi-face"><ellipse cx="24" cy="26" rx="3.1" ry="4.1" fill="#18181B"/><ellipse cx="40" cy="26" rx="3.1" ry="4.1" fill="#18181B"/></g></g></svg>
